<svg xmlns="http://www.w3.org/2000/svg" viewBox="0 0 214.54 25.61"><defs><style>.cls-1,.cls-2{fill:#231815;}.cls-1,.cls-3{fill-rule:evenodd;}.cls-3{fill:#e60012;}</style></defs><title>アセット 1</title><g id="レイヤー_2" data-name="レイヤー 2"><g id="レイヤー_1-2" data-name="レイヤー 1"><polygon class="cls-1" points="0 25.61 5.19 0.29 16.88 0.29 21.25 12.95 25.94 0.29 37.38 0.29 42.88 25.61 33.25 25.61 30.75 13.61 24.94 25.61 18.06 25.61 12.63 13.36 9.63 25.61 0 25.61"/><path class="cls-1" d="M53.69,11.32V8.48H45.44V25.61h8.25V17.94c1.73-1.73,4.34-3.58,6.69-2.09L63,10.8v-.25S59.13,6.37,53.69,11.32Z"/><circle class="cls-2" cx="61.94" cy="21.3" r="3.69"/><rect class="cls-2" x="107.38" y="0.3" width="10" height="25.31"/><polygon class="cls-3" points="105.44 25.61 89.75 11.54 102.81 0.29 90.75 0.29 81 7.87 81 0.29 71 0.29 71 25.61 81 25.61 81 16.08 94.31 25.61 105.44 25.61"/><polygon class="cls-1" points="140.31 0.29 140.31 10.99 125.67 0.29 120.75 0.29 120.75 25.61 130.75 25.61 130.75 14.5 145.92 25.61 150.31 25.61 150.31 0.29 140.31 0.29"/><path class="cls-1" d="M167.88,0V14.71s-2,6.18-8.92-.83l-6.5,5.38s3,6.36,12.6,6.36,13-5.47,13-7.59V0Z"/><path class="cls-1" d="M197.56,0c-9.38,0-17,5.73-17,12.8s7.6,12.8,17,12.8,17-5.73,17-12.8S206.94,0,197.56,0Zm0,17.65c-3.55,0-6.43-2.17-6.43-4.85S194,8,197.56,8,204,10.13,204,12.8,201.11,17.65,197.56,17.65Z"/></g></g></svg>